<svg width="117" height="37" viewBox="0 0 117 37" fill="none" xmlns="http://www.w3.org/2000/svg">
<path d="M111.104 2.80774H113.297V3.29447H112.501V5.80692H111.909V3.29447H111.113L111.104 2.80774Z" fill="#10162B"/>
<path d="M113.76 2.80774H114.44L115.393 5.04206L116.346 2.80774H116.998V5.80692H116.401V3.85537L115.61 5.80692H115.147L114.342 3.85073V5.80692H113.76V2.80774Z" fill="#10162B"/>
<path d="M17.117 14.4708H0V36.4493H17.117V14.4708Z" fill="#10162B"/>
<path d="M9.2124 0.500003H22.1561C23.9038 0.49879 25.6347 0.842666 27.2498 1.51198C28.8648 2.18129 30.3324 3.16293 31.5687 4.40078C32.805 5.63863 33.7857 7.10845 34.4548 8.72623C35.1239 10.344 35.4683 12.078 35.4683 13.8292V13.8846C35.4622 17.4174 34.0567 20.8032 31.5606 23.2982C29.0644 25.7931 25.6819 27.1932 22.1561 27.1908H9.2124V0.500003Z" fill="#76D0F4"/>
<path d="M17.1171 36.4493L9.21729 27.1908H17.1171V36.4493Z" fill="#EE4751"/>
<path d="M50.1397 7.7C50.9667 7.678 51.7899 7.81914 52.5626 8.11539C53.178 8.36054 53.7329 8.73694 54.1886 9.21846C54.606 9.66283 54.9205 10.1939 55.1099 10.7738C55.4968 11.9488 55.4968 13.2173 55.1099 14.3923C54.9224 14.9772 54.6077 15.5132 54.1886 15.9615C53.7339 16.4431 53.1787 16.8182 52.5626 17.06C51.7899 17.3563 50.9667 17.4974 50.1397 17.4754H46.6343V21.5323H43.2993V7.68616L50.1397 7.7ZM49.2184 14.8723C49.5885 14.8732 49.9581 14.8455 50.3239 14.7892C50.6488 14.7361 50.9611 14.6234 51.2452 14.4569C51.5166 14.2863 51.7388 14.0476 51.8901 13.7646C52.0704 13.3995 52.156 12.9947 52.1388 12.5877C52.1562 12.1821 52.0706 11.7788 51.8901 11.4154C51.7419 11.1301 51.519 10.8908 51.2452 10.7231C50.9628 10.5528 50.6498 10.4399 50.3239 10.3908C49.9582 10.333 49.5886 10.3037 49.2184 10.3031H46.6251V14.8723H49.2184Z" fill="#10162B"/>
<path d="M61.8442 7.69995V21.5461H58.5V7.69995H61.8442Z" fill="#10162B"/>
<path d="M72.7522 7.7C73.5777 7.678 74.3994 7.81915 75.1705 8.11539C75.7866 8.35934 76.3417 8.73591 76.7965 9.21846C77.2121 9.66418 77.5264 10.1948 77.7178 10.7738C78.0986 11.9498 78.0986 13.2163 77.7178 14.3923C77.5277 14.976 77.2133 15.5114 76.7965 15.9615C76.3426 16.4441 75.7871 16.8193 75.1705 17.06C74.3994 17.3562 73.5777 17.4974 72.7522 17.4754H69.2468V21.5323H65.9072V7.68616L72.7522 7.7ZM71.8309 14.8723C72.201 14.8732 72.5706 14.8455 72.9364 14.7892C73.2615 14.7368 73.5739 14.6241 73.8577 14.4569C74.1297 14.2856 74.3533 14.0472 74.5072 13.7646C74.6837 13.3983 74.7676 12.9941 74.7513 12.5877C74.7678 12.1827 74.6839 11.78 74.5072 11.4154C74.3559 11.1309 74.1317 10.8919 73.8577 10.7231C73.5757 10.5521 73.2625 10.4392 72.9364 10.3908C72.5707 10.333 72.2011 10.3037 71.8309 10.3031H69.2422V14.8723H71.8309Z" fill="#10162B"/>
<path d="M88.5471 7.7C89.3741 7.67848 90.1972 7.8196 90.97 8.11539C91.5825 8.36119 92.1342 8.73759 92.5868 9.21846C93.0024 9.66418 93.3167 10.1948 93.5081 10.7738C93.889 11.9498 93.889 13.2163 93.5081 14.3923C93.318 14.976 93.0037 15.5114 92.5868 15.9615C92.1338 16.443 91.5801 16.8181 90.9654 17.06C90.1926 17.3558 89.3695 17.4969 88.5425 17.4754H85.0371V21.5323H81.7021V7.68616L88.5471 7.7ZM87.6258 14.8723C87.9944 14.8732 88.3625 14.8455 88.7268 14.7892C89.0518 14.7368 89.3642 14.6241 89.648 14.4569C89.9222 14.2883 90.1464 14.0492 90.2975 13.7646C90.474 13.3983 90.5579 12.9941 90.5416 12.5877C90.5581 12.1827 90.4742 11.78 90.2975 11.4154C90.1491 11.1289 89.9243 10.8892 89.648 10.7231C89.366 10.5521 89.0528 10.4392 88.7268 10.3908C88.3626 10.333 87.9945 10.3036 87.6258 10.3031H85.0325V14.8723H87.6258Z" fill="#10162B"/>
<path d="M100.487 7.69995V21.5461H97.1516V7.69995H100.487Z" fill="#10162B"/>
<path d="M107.502 7.7L113.836 16.52H113.877V7.7H117V21.5462H113.665L107.355 12.7769H107.327V21.5323H104.204V7.68616L107.502 7.7Z" fill="#10162B"/>
</svg>
